STARTFONT 2.1
FONT -FontForge-Futura Md BT-Book-R-Normal--24-240-75-75-P-134-ISO10646-1
SIZE 24 75 75
FONTBOUNDINGBOX 24 24 -1 -6
COMMENT "Generated by fontforge, http://fontforge.sourceforge.net"
COMMENT "Copyright 1990-1993 Bitstream Inc.  All rights reserved."
STARTPROPERTIES 39
FOUNDRY "FontForge"
FAMILY_NAME "Futura Md BT"
WEIGHT_NAME "Book"
SLANT "R"
SETWIDTH_NAME "Normal"
ADD_STYLE_NAME ""
PIXEL_SIZE 24
POINT_SIZE 240
RESOLUTION_X 75
RESOLUTION_Y 75
SPACING "P"
AVERAGE_WIDTH 134
CHARSET_REGISTRY "ISO10646"
CHARSET_ENCODING "1"
FONTNAME_REGISTRY ""
CHARSET_COLLECTIONS "ISO10646-1"
FONT_NAME "FuturaBT-Medium"
FACE_NAME "Futura Medium BT"
COPYRIGHT "Copyright 1990-1993 Bitstream Inc.  All rights reserved."
FONT_VERSION "mfgpctt-v1.52 Tuesday, January 12, 1993 3:32:04 pm (EST)"
FONT_ASCENT 19
FONT_DESCENT 5
UNDERLINE_POSITION -3
UNDERLINE_THICKNESS 2
X_HEIGHT 10
CAP_HEIGHT 16
RAW_ASCENT 799
RAW_DESCENT 200
RELATIVE_WEIGHT 40
RELATIVE_SETWIDTH 50
SUPERSCRIPT_X 0
SUPERSCRIPT_Y 6
SUPERSCRIPT_SIZE 14
SUBSCRIPT_X 0
SUBSCRIPT_Y -5
SUBSCRIPT_SIZE 14
FIGURE_WIDTH 15
AVG_LOWERCASE_WIDTH 119
AVG_UPPERCASE_WIDTH 154
ENDPROPERTIES
CHARS 96
STARTCHAR exclam
ENCODING 33
SWIDTH 329 0
DWIDTH 8 0
BBX 3 17 3 0
BITMAP
E0
E0
E0
E0
E0
E0
E0
E0
E0
E0
E0
E0
E0
00
E0
E0
E0
ENDCHAR
STARTCHAR quotedbl
ENCODING 34
SWIDTH 313 0
DWIDTH 8 0
BBX 6 7 1 10
BITMAP
CC
CC
CC
CC
CC
CC
CC
ENDCHAR
STARTCHAR numbersign
ENCODING 35
SWIDTH 769 0
DWIDTH 18 0
BBX 17 17 1 0
BITMAP
00C600
01C600
018C00
018C00
039C00
3FFF80
3FFF00
063800
063000
0E3000
7FFE00
FFFE00
1C6000
18E000
18C000
39C000
318000
ENDCHAR
STARTCHAR dollar
ENCODING 36
SWIDTH 604 0
DWIDTH 15 0
BBX 11 20 2 -2
BITMAP
0400
1F00
7FC0
F5C0
E500
E400
F400
7C00
7E00
1F80
07C0
05E0
04E0
04E0
C4E0
E5C0
7FC0
3F00
0400
0400
ENDCHAR
STARTCHAR percent
ENCODING 37
SWIDTH 791 0
DWIDTH 19 0
BBX 18 17 1 0
BITMAP
3C0600
660C00
C30800
C31800
C33000
C33000
C36000
666000
3CCF00
019980
01B0C0
0330C0
0330C0
0630C0
0430C0
0C1980
180F00
ENDCHAR
STARTCHAR ampersand
ENCODING 38
SWIDTH 670 0
DWIDTH 16 0
BBX 16 17 1 0
BITMAP
0F80
1FC0
3DE0
38E0
38E0
38E0
1DC0
0F00
1F00
3B84
71CE
E0EE
E07C
E078
F0FC
7FDE
1F0F
ENDCHAR
STARTCHAR quotesingle
ENCODING 39
SWIDTH 163 0
DWIDTH 4 0
BBX 2 7 1 10
BITMAP
C0
C0
C0
C0
C0
C0
C0
ENDCHAR
STARTCHAR parenleft
ENCODING 40
SWIDTH 303 0
DWIDTH 7 0
BBX 5 23 2 -6
BITMAP
38
30
30
60
60
60
E0
C0
C0
C0
C0
C0
C0
C0
C0
C0
C0
60
60
60
30
30
38
ENDCHAR
STARTCHAR parenright
ENCODING 41
SWIDTH 303 0
DWIDTH 7 0
BBX 5 23 1 -6
BITMAP
E0
60
60
70
30
30
38
18
18
18
18
18
18
18
18
18
38
30
30
30
60
60
E0
ENDCHAR
STARTCHAR asterisk
ENCODING 42
SWIDTH 439 0
DWIDTH 11 0
BBX 8 8 1 9
BITMAP
18
9A
FF
7C
3C
FF
9A
18
ENDCHAR
STARTCHAR plus
ENCODING 43
SWIDTH 833 0
DWIDTH 20 0
BBX 14 14 3 0
BITMAP
0300
0300
0300
0300
0300
0300
FFFC
FFFC
0300
0300
0300
0300
0300
0300
ENDCHAR
STARTCHAR comma
ENCODING 44
SWIDTH 301 0
DWIDTH 7 0
BBX 4 7 1 -4
BITMAP
20
30
60
60
40
C0
C0
ENDCHAR
STARTCHAR hyphen
ENCODING 45
SWIDTH 404 0
DWIDTH 10 0
BBX 6 2 2 4
BITMAP
FC
FC
ENDCHAR
STARTCHAR period
ENCODING 46
SWIDTH 301 0
DWIDTH 7 0
BBX 3 3 2 0
BITMAP
E0
E0
E0
ENDCHAR
STARTCHAR slash
ENCODING 47
SWIDTH 433 0
DWIDTH 10 0
BBX 10 20 0 -3
BITMAP
00C0
0180
0180
0180
0300
0300
0600
0600
0600
0C00
0C00
1800
1800
1800
3000
3000
6000
6000
6000
C000
ENDCHAR
STARTCHAR zero
ENCODING 48
SWIDTH 604 0
DWIDTH 15 0
BBX 12 17 1 0
BITMAP
0F00
3FC0
79E0
70E0
E060
E070
E070
E070
E070
E070
E070
E070
E060
70E0
79E0
3FC0
0F00
ENDCHAR
STARTCHAR one
ENCODING 49
SWIDTH 604 0
DWIDTH 15 0
BBX 7 17 2 0
BITMAP
7E
FE
0E
0E
0E
0E
0E
0E
0E
0E
0E
0E
0E
0E
0E
0E
0E
ENDCHAR
STARTCHAR two
ENCODING 50
SWIDTH 604 0
DWIDTH 15 0
BBX 11 17 1 0
BITMAP
1F00
7FC0
71E0
E0E0
E0E0
00E0
00E0
01C0
01C0
0380
0700
0F00
1E00
1C00
3800
7FE0
FFE0
ENDCHAR
STARTCHAR three
ENCODING 51
SWIDTH 604 0
DWIDTH 15 0
BBX 12 17 1 0
BITMAP
0F80
3FE0
78F0
7070
7070
0070
00E0
07C0
07C0
00E0
0070
0070
E070
E070
70E0
7FE0
1F80
ENDCHAR
STARTCHAR four
ENCODING 52
SWIDTH 604 0
DWIDTH 15 0
BBX 13 17 0 0
BITMAP
0020
0060
00E0
00E0
01E0
03E0
07E0
06E0
0CE0
1CE0
18E0
30E0
7FF8
FFF8
00E0
00E0
00E0
ENDCHAR
STARTCHAR five
ENCODING 53
SWIDTH 604 0
DWIDTH 15 0
BBX 12 17 1 0
BITMAP
1FE0
1FE0
3000
3000
3000
3F80
7FC0
61E0
40F0
0070
0070
0070
0070
40E0
E1E0
7FC0
3F00
ENDCHAR
STARTCHAR six
ENCODING 54
SWIDTH 604 0
DWIDTH 15 0
BBX 12 18 1 0
BITMAP
0100
0380
0700
0600
0E00
1C00
1800
3F80
7FE0
70E0
E070
E070
E070
E070
E070
70E0
3FC0
1F80
ENDCHAR
STARTCHAR seven
ENCODING 55
SWIDTH 604 0
DWIDTH 15 0
BBX 12 17 2 0
BITMAP
FFF0
FFE0
00E0
01C0
01C0
0380
0380
0700
0700
0E00
0E00
1C00
1C00
3800
3800
7000
6000
ENDCHAR
STARTCHAR eight
ENCODING 56
SWIDTH 604 0
DWIDTH 15 0
BBX 12 17 1 0
BITMAP
0F00
3FC0
39C0
70E0
70E0
70E0
70E0
39C0
1F80
3FC0
70E0
E070
E070
E070
F0F0
7FE0
1F80
ENDCHAR
STARTCHAR nine
ENCODING 57
SWIDTH 604 0
DWIDTH 15 0
BBX 12 17 1 0
BITMAP
1F80
3FC0
70E0
E070
E070
E070
E070
E070
70E0
7FE0
1FC0
0180
0380
0700
0600
0C00
1800
ENDCHAR
STARTCHAR colon
ENCODING 58
SWIDTH 329 0
DWIDTH 8 0
BBX 3 11 2 0
BITMAP
E0
E0
E0
00
00
00
00
00
E0
E0
E0
ENDCHAR
STARTCHAR semicolon
ENCODING 59
SWIDTH 329 0
DWIDTH 8 0
BBX 5 15 1 -4
BITMAP
38
38
38
00
00
00
00
00
20
30
60
60
60
C0
C0
ENDCHAR
STARTCHAR less
ENCODING 60
SWIDTH 833 0
DWIDTH 20 0
BBX 14 13 3 1
BITMAP
0004
003C
00F8
07E0
1F00
F800
E000
F800
1F00
07C0
00F8
003C
0004
ENDCHAR
STARTCHAR equal
ENCODING 61
SWIDTH 833 0
DWIDTH 20 0
BBX 14 7 3 4
BITMAP
FFFC
FFFC
0000
0000
0000
FFFC
FFFC
ENDCHAR
STARTCHAR greater
ENCODING 62
SWIDTH 833 0
DWIDTH 20 0
BBX 14 13 3 1
BITMAP
8000
F000
7C00
1F80
03E0
00FC
001C
007C
03E0
0F80
7C00
F000
8000
ENDCHAR
STARTCHAR question
ENCODING 63
SWIDTH 543 0
DWIDTH 13 0
BBX 8 17 2 0
BITMAP
3C
7E
E7
C3
03
0F
3E
78
E0
C6
C6
FE
3C
00
38
38
38
ENDCHAR
STARTCHAR at
ENCODING 64
SWIDTH 1000 0
DWIDTH 24 0
BBX 22 21 1 -4
BITMAP
00FF00
03FFC0
0F81E0
1C0070
380018
30F01C
61FB0C
638F0C
C3060C
C6060C
C6060C
C60E18
C60C38
C71E70
E3FFE0
61E780
700000
380060
1E01C0
07FF80
01FE00
ENDCHAR
STARTCHAR A
ENCODING 65
SWIDTH 662 0
DWIDTH 16 0
BBX 17 17 0 0
BITMAP
008000
008000
01C000
01C000
03E000
036000
077000
063000
0E3800
0C1800
1FFC00
1FFC00
380E00
300E00
700700
600700
E00380
ENDCHAR
STARTCHAR B
ENCODING 66
SWIDTH 576 0
DWIDTH 14 0
BBX 11 17 2 0
BITMAP
FF00
FF80
E3C0
E1C0
E1C0
E1C0
E3C0
FF80
FFC0
E1C0
E0E0
E0E0
E0E0
E0E0
E1C0
FFC0
FF00
ENDCHAR
STARTCHAR C
ENCODING 67
SWIDTH 717 0
DWIDTH 17 0
BBX 15 17 1 0
BITMAP
03F0
0FFC
1E0E
3802
7000
7000
E000
E000
E000
E000
E000
7000
7000
3802
1E0E
0FFC
03F0
ENDCHAR
STARTCHAR D
ENCODING 68
SWIDTH 740 0
DWIDTH 18 0
BBX 15 17 2 0
BITMAP
FFC0
FFF0
E078
E03C
E01C
E00E
E00E
E00E
E00E
E00E
E00E
E00E
E01C
E03C
E078
FFF0
FFC0
ENDCHAR
STARTCHAR E
ENCODING 69
SWIDTH 532 0
DWIDTH 13 0
BBX 10 17 2 0
BITMAP
FFC0
FFC0
E000
E000
E000
E000
E000
FFC0
FFC0
E000
E000
E000
E000
E000
E000
FFC0
FFC0
ENDCHAR
STARTCHAR F
ENCODING 70
SWIDTH 524 0
DWIDTH 13 0
BBX 10 17 2 0
BITMAP
FFC0
FFC0
E000
E000
E000
E000
E000
FFC0
FFC0
E000
E000
E000
E000
E000
E000
E000
E000
ENDCHAR
STARTCHAR G
ENCODING 71
SWIDTH 803 0
DWIDTH 19 0
BBX 17 17 1 0
BITMAP
03F800
0FFE00
1C1F00
380400
700000
F00000
E00000
E00000
E03F80
E03F80
E00380
F00380
700380
380700
3E0E00
0FFC00
03F800
ENDCHAR
STARTCHAR H
ENCODING 72
SWIDTH 748 0
DWIDTH 18 0
BBX 14 17 2 0
BITMAP
E01C
E01C
E01C
E01C
E01C
E01C
E01C
FFFC
FFFC
E01C
E01C
E01C
E01C
E01C
E01C
E01C
E01C
ENDCHAR
STARTCHAR I
ENCODING 73
SWIDTH 285 0
DWIDTH 7 0
BBX 3 17 2 0
BITMAP
E0
E0
E0
E0
E0
E0
E0
E0
E0
E0
E0
E0
E0
E0
E0
E0
E0
ENDCHAR
STARTCHAR J
ENCODING 74
SWIDTH 394 0
DWIDTH 9 0
BBX 8 17 0 0
BITMAP
07
07
07
07
07
07
07
07
07
07
07
07
07
07
47
FF
7C
ENDCHAR
STARTCHAR K
ENCODING 75
SWIDTH 620 0
DWIDTH 15 0
BBX 13 17 2 0
BITMAP
E070
E0E0
E1C0
E380
E700
EE00
FE00
FC00
FC00
EE00
E700
E780
E3C0
E1C0
E0E0
E0F0
E078
ENDCHAR
STARTCHAR L
ENCODING 76
SWIDTH 470 0
DWIDTH 11 0
BBX 9 17 2 0
BITMAP
E000
E000
E000
E000
E000
E000
E000
E000
E000
E000
E000
E000
E000
E000
E000
FF80
FF80
ENDCHAR
STARTCHAR M
ENCODING 77
SWIDTH 862 0
DWIDTH 21 0
BBX 20 17 0 0
BITMAP
100100
080100
180100
1C0380
1C0380
1E0780
3E0780
3F0FC0
370FC0
339CC0
339CC0
71F8E0
70F8E0
60F060
606060
E06070
E04070
ENDCHAR
STARTCHAR N
ENCODING 78
SWIDTH 803 0
DWIDTH 19 0
BBX 15 17 2 0
BITMAP
800E
C00E
E00E
F00E
F80E
FC0E
EE0E
E70E
E38E
E1CE
E0EE
E07E
E03E
E01E
E00E
E006
E002
ENDCHAR
STARTCHAR O
ENCODING 79
SWIDTH 866 0
DWIDTH 21 0
BBX 18 17 1 0
BITMAP
03F000
0FFC00
1E1E00
380700
700380
700380
E001C0
E001C0
E001C0
E001C0
E001C0
700380
700380
380700
1E1E00
0FFC00
03F000
ENDCHAR
STARTCHAR P
ENCODING 80
SWIDTH 532 0
DWIDTH 13 0
BBX 10 17 2 0
BITMAP
FF00
FF80
E3C0
E1C0
E1C0
E1C0
E3C0
FF80
FF00
E000
E000
E000
E000
E000
E000
E000
E000
ENDCHAR
STARTCHAR Q
ENCODING 81
SWIDTH 866 0
DWIDTH 21 0
BBX 19 18 1 -1
BITMAP
03F000
0FFC00
1E1E00
380700
700380
700380
E001C0
E001C0
E001C0
E001C0
E001C0
7073C0
703B80
381F80
1E1F00
0FFF00
03F380
0001E0
ENDCHAR
STARTCHAR R
ENCODING 82
SWIDTH 560 0
DWIDTH 13 0
BBX 12 17 2 0
BITMAP
FF00
FF80
E3C0
E1C0
E1C0
E1C0
E3C0
FF80
FF00
EE00
E700
E380
E380
E1C0
E1C0
E0E0
E070
ENDCHAR
STARTCHAR S
ENCODING 83
SWIDTH 548 0
DWIDTH 13 0
BBX 11 17 1 0
BITMAP
1F00
7FC0
F1C0
E080
E000
F000
7800
3E00
1F80
07C0
01E0
00E0
40E0
C0E0
E1C0
7FC0
3F00
ENDCHAR
STARTCHAR T
ENCODING 84
SWIDTH 508 0
DWIDTH 12 0
BBX 13 17 0 0
BITMAP
FFF8
FFF8
0700
0700
0700
0700
0700
0700
0700
0700
0700
0700
0700
0700
0700
0700
0700
ENDCHAR
STARTCHAR U
ENCODING 85
SWIDTH 744 0
DWIDTH 18 0
BBX 14 17 2 0
BITMAP
E01C
E01C
E01C
E01C
E01C
E01C
E01C
E01C
E01C
E01C
E01C
E01C
E01C
F03C
7878
3FF0
0FC0
ENDCHAR
STARTCHAR V
ENCODING 86
SWIDTH 618 0
DWIDTH 15 0
BBX 15 17 0 0
BITMAP
E00E
601C
701C
3018
3838
3838
1870
1C70
0C60
0EE0
06C0
07C0
0780
0380
0380
0100
0100
ENDCHAR
STARTCHAR W
ENCODING 87
SWIDTH 938 0
DWIDTH 23 0
BBX 23 17 0 0
BITMAP
E0100E
60100C
70381C
70381C
303838
387C38
186C30
1CEE70
1CCE70
0CC660
0FC7E0
0783C0
0783C0
0701C0
030180
020080
020100
ENDCHAR
STARTCHAR X
ENCODING 88
SWIDTH 571 0
DWIDTH 14 0
BBX 14 17 0 0
BITMAP
701C
3838
1870
1C70
0EE0
0EE0
07C0
0380
0380
07C0
0FC0
0EE0
1CE0
3C70
3838
7038
F01C
ENDCHAR
STARTCHAR Y
ENCODING 89
SWIDTH 592 0
DWIDTH 14 0
BBX 15 17 -1 0
BITMAP
E00E
701C
3838
3838
1C70
0E60
0EE0
07C0
0380
0380
0380
0380
0380
0380
0380
0380
0380
ENDCHAR
STARTCHAR Z
ENCODING 90
SWIDTH 576 0
DWIDTH 14 0
BBX 13 17 0 0
BITMAP
7FF8
7FF0
00E0
00E0
01C0
01C0
0380
0780
0700
0E00
0E00
1C00
1C00
3800
7800
7FF8
FFF8
ENDCHAR
STARTCHAR bracketleft
ENCODING 91
SWIDTH 303 0
DWIDTH 7 0
BBX 4 22 2 -5
BITMAP
F0
F0
C0
C0
C0
C0
C0
C0
C0
C0
C0
C0
C0
C0
C0
C0
C0
C0
C0
C0
F0
F0
ENDCHAR
STARTCHAR backslash
ENCODING 92
SWIDTH 433 0
DWIDTH 10 0
BBX 10 20 0 -3
BITMAP
C000
6000
6000
6000
3000
3000
1800
1800
1800
0C00
0C00
0600
0600
0600
0300
0300
0180
0180
0180
00C0
ENDCHAR
STARTCHAR bracketright
ENCODING 93
SWIDTH 303 0
DWIDTH 7 0
BBX 4 22 1 -5
BITMAP
F0
F0
30
30
30
30
30
30
30
30
30
30
30
30
30
30
30
30
30
30
F0
F0
ENDCHAR
STARTCHAR asciicircum
ENCODING 94
SWIDTH 1000 0
DWIDTH 24 0
BBX 14 7 5 10
BITMAP
0780
0FC0
0FC0
1CE0
3870
7038
E01C
ENDCHAR
STARTCHAR underscore
ENCODING 95
SWIDTH 500 0
DWIDTH 12 0
BBX 12 2 0 -6
BITMAP
FFF0
FFF0
ENDCHAR
STARTCHAR grave
ENCODING 96
SWIDTH 500 0
DWIDTH 12 0
BBX 5 3 3 13
BITMAP
E0
30
18
ENDCHAR
STARTCHAR a
ENCODING 97
SWIDTH 582 0
DWIDTH 14 0
BBX 11 11 1 0
BITMAP
1EE0
7FE0
71E0
E0E0
E0E0
E0E0
E0E0
E0E0
71E0
7FE0
3EE0
ENDCHAR
STARTCHAR b
ENCODING 98
SWIDTH 582 0
DWIDTH 14 0
BBX 11 18 2 0
BITMAP
E000
E000
E000
E000
E000
E000
E000
EF80
FFC0
F1C0
E0E0
E0E0
E0E0
E0E0
E0E0
F1C0
FFC0
EF80
ENDCHAR
STARTCHAR c
ENCODING 99
SWIDTH 454 0
DWIDTH 11 0
BBX 9 11 1 0
BITMAP
1F00
3F80
7080
E080
E000
E000
E000
E000
7080
3F80
1F00
ENDCHAR
STARTCHAR d
ENCODING 100
SWIDTH 582 0
DWIDTH 14 0
BBX 11 18 1 0
BITMAP
00E0
00E0
00E0
00E0
00E0
00E0
00E0
1EE0
7FE0
71E0
E0E0
E0E0
E0E0
E0E0
E0E0
71E0
7FE0
3EE0
ENDCHAR
STARTCHAR e
ENCODING 101
SWIDTH 556 0
DWIDTH 13 0
BBX 12 11 1 0
BITMAP
1F80
3FE0
70E0
E070
FFF0
FFF0
E000
E040
70F0
3FE0
1F80
ENDCHAR
STARTCHAR f
ENCODING 102
SWIDTH 306 0
DWIDTH 7 0
BBX 8 18 0 0
BITMAP
0F
1F
38
38
38
38
38
FF
FF
38
38
38
38
38
38
38
38
38
ENDCHAR
STARTCHAR g
ENCODING 103
SWIDTH 582 0
DWIDTH 14 0
BBX 11 16 1 -5
BITMAP
1EE0
7FE0
71E0
E0E0
E0E0
E0E0
E0E0
E0E0
71E0
7FE0
3EE0
00E0
70E0
71C0
7FC0
1F00
ENDCHAR
STARTCHAR h
ENCODING 104
SWIDTH 587 0
DWIDTH 14 0
BBX 11 18 2 0
BITMAP
E000
E000
E000
E000
E000
E000
E000
E780
FFC0
F1E0
E0E0
E0E0
E0E0
E0E0
E0E0
E0E0
E0E0
E0E0
ENDCHAR
STARTCHAR i
ENCODING 105
SWIDTH 262 0
DWIDTH 6 0
BBX 3 17 2 0
BITMAP
E0
E0
E0
00
00
00
E0
E0
E0
E0
E0
E0
E0
E0
E0
E0
E0
ENDCHAR
STARTCHAR j
ENCODING 106
SWIDTH 262 0
DWIDTH 6 0
BBX 3 22 2 -5
BITMAP
E0
E0
E0
00
00
00
E0
E0
E0
E0
E0
E0
E0
E0
E0
E0
E0
E0
E0
E0
E0
E0
ENDCHAR
STARTCHAR k
ENCODING 107
SWIDTH 516 0
DWIDTH 12 0
BBX 11 18 2 0
BITMAP
E000
E000
E000
E000
E000
E000
E000
E1E0
E380
E700
EE00
FC00
FC00
EE00
E700
E380
E1C0
E1E0
ENDCHAR
STARTCHAR l
ENCODING 108
SWIDTH 262 0
DWIDTH 6 0
BBX 3 18 2 0
BITMAP
E0
E0
E0
E0
E0
E0
E0
E0
E0
E0
E0
E0
E0
E0
E0
E0
E0
E0
ENDCHAR
STARTCHAR m
ENCODING 109
SWIDTH 875 0
DWIDTH 21 0
BBX 17 11 2 0
BITMAP
EF9F00
FFBF80
F3E780
E1C380
E1C380
E1C380
E1C380
E1C380
E1C380
E1C380
E1C380
ENDCHAR
STARTCHAR n
ENCODING 110
SWIDTH 587 0
DWIDTH 14 0
BBX 11 11 2 0
BITMAP
E780
FFC0
F1E0
E0E0
E0E0
E0E0
E0E0
E0E0
E0E0
E0E0
E0E0
ENDCHAR
STARTCHAR o
ENCODING 111
SWIDTH 587 0
DWIDTH 14 0
BBX 12 11 1 0
BITMAP
1F80
3FC0
70E0
F0F0
E070
E070
E070
F0F0
70E0
3FC0
0F80
ENDCHAR
STARTCHAR p
ENCODING 112
SWIDTH 582 0
DWIDTH 14 0
BBX 11 16 2 -5
BITMAP
EF80
FFC0
F1C0
E0E0
E0E0
E0E0
E0E0
E0E0
F1C0
FFC0
EF80
E000
E000
E000
E000
E000
ENDCHAR
STARTCHAR q
ENCODING 113
SWIDTH 582 0
DWIDTH 14 0
BBX 11 16 1 -5
BITMAP
1EE0
7FE0
71E0
E0E0
E0E0
E0E0
E0E0
E0E0
71E0
7FE0
3EE0
00E0
00E0
00E0
00E0
00E0
ENDCHAR
STARTCHAR r
ENCODING 114
SWIDTH 368 0
DWIDTH 9 0
BBX 7 11 2 0
BITMAP
EE
FE
F0
E0
E0
E0
E0
E0
E0
E0
E0
ENDCHAR
STARTCHAR s
ENCODING 115
SWIDTH 425 0
DWIDTH 10 0
BBX 10 11 0 0
BITMAP
1F00
7F80
7100
7000
3E00
0F80
03C0
41C0
E1C0
7F80
3F00
ENDCHAR
STARTCHAR t
ENCODING 116
SWIDTH 303 0
DWIDTH 7 0
BBX 7 15 0 0
BITMAP
38
38
38
38
FE
FE
38
38
38
38
38
38
38
38
38
ENDCHAR
STARTCHAR u
ENCODING 117
SWIDTH 587 0
DWIDTH 14 0
BBX 11 11 2 0
BITMAP
E0E0
E0E0
E0E0
E0E0
E0E0
E0E0
E0E0
E0E0
71C0
7FC0
3F00
ENDCHAR
STARTCHAR v
ENCODING 118
SWIDTH 472 0
DWIDTH 11 0
BBX 12 11 0 0
BITMAP
E070
60E0
70E0
30C0
39C0
1980
1F00
0F00
0600
0600
0400
ENDCHAR
STARTCHAR w
ENCODING 119
SWIDTH 750 0
DWIDTH 18 0
BBX 18 11 0 0
BITMAP
E081C0
60C180
70C380
31E300
39E700
1B3600
1B3E00
0E1C00
0E1C00
040800
040800
ENDCHAR
STARTCHAR x
ENCODING 120
SWIDTH 453 0
DWIDTH 11 0
BBX 11 11 0 0
BITMAP
E1C0
7380
3300
3F00
1E00
1E00
1F00
3F00
7380
61C0
E0E0
ENDCHAR
STARTCHAR y
ENCODING 121
SWIDTH 471 0
DWIDTH 11 0
BBX 12 16 0 -5
BITMAP
E070
60E0
70E0
71C0
39C0
3980
1B80
1B00
0F00
0E00
0E00
1C00
1C00
3800
3800
7000
ENDCHAR
STARTCHAR z
ENCODING 122
SWIDTH 449 0
DWIDTH 11 0
BBX 10 11 0 0
BITMAP
7FC0
7F80
0300
0700
0E00
0C00
1C00
3800
3000
7FC0
FFC0
ENDCHAR
STARTCHAR braceleft
ENCODING 123
SWIDTH 500 0
DWIDTH 12 0
BBX 8 22 2 -5
BITMAP
0F
1F
18
18
18
18
18
18
18
38
F0
F0
38
18
18
18
18
18
18
18
1F
0F
ENDCHAR
STARTCHAR bar
ENCODING 124
SWIDTH 500 0
DWIDTH 12 0
BBX 2 24 5 -6
BITMAP
C0
C0
C0
C0
C0
C0
C0
C0
C0
C0
C0
C0
C0
C0
C0
C0
C0
C0
C0
C0
C0
C0
C0
C0
ENDCHAR
STARTCHAR braceright
ENCODING 125
SWIDTH 500 0
DWIDTH 12 0
BBX 8 22 1 -5
BITMAP
F0
F8
18
18
18
18
18
18
18
1C
0F
0F
1C
18
18
18
18
18
18
18
F8
F0
ENDCHAR
STARTCHAR asciitilde
ENCODING 126
SWIDTH 833 0
DWIDTH 20 0
BBX 16 4 2 5
BITMAP
3E01
7F83
C1FE
807C
ENDCHAR
STARTCHAR nonbreakingspace
ENCODING 160
SWIDTH 604 0
DWIDTH 15 0
BBX 1 1 0 0
BITMAP
00
ENDCHAR
STARTCHAR degree
ENCODING 176
SWIDTH 329 0
DWIDTH 8 0
BBX 7 7 1 10
BITMAP
38
44
82
82
82
44
38
ENDCHAR
ENDFONT
